<svg width="992" height="883" viewBox="0 0 992 883" fill="none" xmlns="http://www.w3.org/2000/svg">
<path d="M222.276 454.711C192.576 336.472 -25.5 325.5 2.50004 224C2.50004 224 -7.5 60.5 125.5 60.5C258.5 60.5 376.076 131.972 475.076 109.472C574.076 86.9716 633.076 -20.5284 769.076 3.47163C905.076 27.4716 876.576 126.972 955.076 183.472C1033.58 239.972 963.076 324.472 955.076 420.972C947.076 517.472 1011.08 651.472 955.076 714.472C899.076 777.472 627.647 932.972 540.576 866.972C453.504 800.972 496.027 779.511 359.635 742.778C239.29 710.366 210.668 734.184 155.531 679.944C100.393 625.705 240.733 528.189 222.276 454.711Z" fill="#096ED8"/>
</svg>
