<svg width="897" height="849" viewBox="0 0 897 849" fill="none" xmlns="http://www.w3.org/2000/svg">
<path d="M897 425.786C897 501.921 820.268 539.367 788.98 603.05C748.379 685.689 777.141 788.928 699.107 834.996C631.33 875.008 549.225 816.563 465.351 816.563C381.477 816.563 273.016 875.008 205.238 834.996C127.204 788.928 123.993 709.56 83.3916 626.921C52.1035 563.237 0 461.252 0 385.117C0 287.936 79.9912 295.75 129.192 220.672C174.963 150.829 175.519 65.0811 250.175 28.3782C310.585 -1.32131 364.033 0.00899264 435.538 0.00899264C507.042 0.00899264 517.714 88.416 578.124 118.116C652.78 154.818 718.148 114.58 763.919 184.424C813.12 259.501 897 328.605 897 425.786Z" fill="#FF9100" fill-opacity="0.2"/>
</svg>
