<svg id="Layer_1" height="512" viewBox="0 0 512 512" width="512" xmlns="http://www.w3.org/2000/svg" data-name="Layer 1" fill="url(#gradient)">
<defs>
  <linearGradient id="gradient" x1="0%" y1="0%" x2="100%" y2="0%">
    <stop offset="0%" style="stop-color:rgb(255,165,0);stop-opacity:1" />
    <stop offset="100%" style="stop-color:rgb(255,0,0);stop-opacity:1" />
  </linearGradient>
</defs>
<path d="m261.41 495h-1.229c-4.55 0-9.146-.041-13.662-.121a6 6 0 0 0 -.213 12c4.586.081 9.254.123 13.875.123h1.243a6 6 0 0 0 -.007-12z"/><path d="m306.392 505.6c.123 0 .248 0 .373-.012 5.05-.31 10.128-.675 15.092-1.087a6 6 0 0 0 -.991-11.959c-4.879.405-9.871.764-14.836 1.069a6 6 0 0 0 .362 11.989z"/><path d="m210.435 499.4a6 6 0 0 0 5.643 6.337c4.984.289 10.068.531 15.11.72h.229a6 6 0 0 0 .221-12c-4.961-.186-9.963-.425-14.867-.708a5.993 5.993 0 0 0 -6.336 5.651z"/><path d="m135.135 391.212a6.025 6.025 0 0 0 1.237-.129c4.717-.988 9.619-1.945 14.569-2.843a6 6 0 1 0 -2.142-11.808c-5.057.918-10.066 1.9-14.889 2.906a6 6 0 0 0 1.225 11.874z"/><path d="m150.805 492.7a6 6 0 0 0 5.025 6.837c4.891.747 9.943 1.451 15.017 2.091a6.1 6.1 0 0 0 .759.048 6 6 0 0 0 .744-11.953c-4.971-.628-9.92-1.317-14.708-2.048a6 6 0 0 0 -6.837 5.025z"/><path d="m105.979 398.306a6.016 6.016 0 0 0 1.63-.226c4.566-1.287 9.379-2.544 14.305-3.737a6 6 0 1 0 -2.825-11.663c-5.069 1.228-10.027 2.523-14.734 3.85a6 6 0 0 0 1.624 11.776z"/><path d="m180.539 496.765a6 6 0 0 0 5.362 6.577c4.948.5 10.021.963 15.078 1.364.162.013.322.019.481.019a6 6 0 0 0 .468-11.982c-4.969-.393-9.952-.844-14.812-1.339a6 6 0 0 0 -6.577 5.361z"/><path d="m164.662 385.843a6.167 6.167 0 0 0 .933-.072c4.819-.753 9.771-1.468 14.718-2.125a6 6 0 0 0 -1.58-11.9c-5.037.668-10.08 1.4-14.99 2.163a6 6 0 0 0 .919 11.929z"/><path d="m194.413 381.883a6.035 6.035 0 0 0 .668-.037c4.889-.542 9.87-1.042 14.807-1.485a6 6 0 0 0 -1.074-11.952c-5.019.451-10.085.959-15.056 1.51a6 6 0 0 0 .655 11.964z"/><path d="m350.423 489.413c-4.821.629-9.786 1.214-14.755 1.739a6 6 0 1 0 1.261 11.933c5.066-.535 10.128-1.131 15.045-1.773a6 6 0 1 0 -1.551-11.9z"/><path d="m276.293 494.833a6 6 0 0 0 .123 12h.129c5.042-.106 10.127-.263 15.114-.467a6 6 0 0 0 -.49-11.99c-4.908.198-9.913.352-14.876.457z"/><path d="m51.074 421.815a5.972 5.972 0 0 0 3.557-1.172 88.41 88.41 0 0 1 11.985-7.278 6 6 0 1 0 -5.486-10.673 100.41 100.41 0 0 0 -13.623 8.3 6 6 0 0 0 3.567 10.828z"/><path d="m49.751 449.293a6 6 0 1 0 -8.732 8.231 68.656 68.656 0 0 0 12.736 10.321 6 6 0 1 0 6.509-10.081 56.8 56.8 0 0 1 -10.513-8.471z"/><path d="m37.982 446.647a6.008 6.008 0 0 0 5.853-7.349 13.588 13.588 0 0 1 -.352-3.045 12.306 12.306 0 0 1 2.178-6.638 6 6 0 0 0 -10.134-6.428 24.227 24.227 0 0 0 -4.044 13.066 25.628 25.628 0 0 0 .658 5.74 6 6 0 0 0 5.841 4.654z"/><path d="m64.724 467.454a6 6 0 0 0 2.848 7.993c4.37 2.074 9.177 4.1 14.285 6.019a6 6 0 0 0 4.221-11.234c-4.8-1.8-9.292-3.694-13.361-5.626a6 6 0 0 0 -7.993 2.848z"/><path d="m408.573 478.33c-4.591 1.215-9.418 2.389-14.347 3.487a6 6 0 0 0 1.3 11.858 6.072 6.072 0 0 0 1.31-.145c5.083-1.133 10.065-2.345 14.809-3.6a6 6 0 1 0 -3.072-11.6z"/><path d="m461.979 456.511a100.572 100.572 0 0 1 -12.235 7.077 6 6 0 1 0 5.328 10.752 112.492 112.492 0 0 0 13.7-7.94 6 6 0 0 0 -6.8-9.889z"/><path d="m92.439 478.91a6 6 0 0 0 3.966 7.5c4.668 1.439 9.619 2.833 14.715 4.145a6 6 0 0 0 2.991-11.622c-4.914-1.264-9.682-2.607-14.171-3.991a6 6 0 0 0 -7.501 3.968z"/><path d="m77.54 407.84a6 6 0 0 0 2.239-.435c4.247-1.711 8.872-3.4 13.745-5.019a6 6 0 1 0 -3.784-11.386c-5.108 1.7-9.967 3.473-14.444 5.275a6 6 0 0 0 2.244 11.565z"/><path d="m436.5 469.388c-4.292 1.669-8.934 3.3-13.8 4.844a6 6 0 1 0 3.635 11.436c5.1-1.621 9.984-3.336 14.51-5.1a6 6 0 1 0 -4.349-11.183z"/><path d="m379.727 484.787c-4.736.889-9.652 1.736-14.612 2.516a6 6 0 1 0 1.867 11.854c5.075-.8 10.108-1.665 14.959-2.576a6 6 0 1 0 -2.214-11.794z"/><path d="m121.355 486.927a6 6 0 0 0 4.593 7.135c4.814 1.043 9.831 2.042 14.91 2.97a6.088 6.088 0 0 0 1.085.1 6 6 0 0 0 1.07-11.9c-4.951-.9-9.837-1.877-14.523-2.893a6 6 0 0 0 -7.135 4.588z"/><path d="m349.688 148.983a32.675 32.675 0 1 0 -32.6-32.675 32.677 32.677 0 0 0 32.6 32.675zm0-53.35a20.675 20.675 0 1 1 -20.6 20.675 20.664 20.664 0 0 1 20.6-20.675z"/><path d="m312.7 301.954a6 6 0 0 0 7.438-4.084l.559-1.92a6 6 0 0 0 -11.522-3.355l-.559 1.921a6 6 0 0 0 4.084 7.438z"/><path d="m310.462 309.635a6 6 0 0 0 -7.438 4.083l-25.724 88.332a6 6 0 1 0 11.522 3.355l25.719-88.332a6 6 0 0 0 -4.079-7.438z"/><path d="m220.689 397a6.2 6.2 0 0 0 2.373 1.029l10.06 2.2-7.885 33.057a6.14 6.14 0 0 0 4.014 7.335 6.067 6.067 0 0 0 1.778.269 6 6 0 0 0 5.831-4.61l7.986-33.485 13.468 2.805a6 6 0 0 0 5.716-4.188l43.278-136.485a138.081 138.081 0 0 0 24.987 5.191v.268c0 8.508 6.525 15.84 15.023 16.259a15.837 15.837 0 0 0 16.617-15.8v-.831a138.421 138.421 0 0 0 27.193-6.02l43.572 137.414a6 6 0 0 0 5.716 4.188l13.618-2.838 7.829 33.492a6 6 0 0 0 5.838 4.636 6.076 6.076 0 0 0 1.794-.274 6.165 6.165 0 0 0 4-7.334l-7.734-33.086 9.921-2.171a6.178 6.178 0 0 0 2.371-1.031 6.02 6.02 0 0 0 2.242-6.477l-42.814-152.591a138.717 138.717 0 0 0 26.185-29.645 19.927 19.927 0 0 0 2.608-16.09 19.722 19.722 0 0 0 -35.632-5.547q-2.56 3.909-5.44 7.52l-16.737-59.652a61.727 61.727 0 0 0 -41.1-77.254v-32.754a19.469 19.469 0 1 0 -38.937 0v33.94a61.717 61.717 0 0 0 -38.185 73.723l-17.982 64.694a98.744 98.744 0 0 1 -9.7-13.29 19.748 19.748 0 1 0 -33.814 20.408 138.691 138.691 0 0 0 31.537 35.962l-10.132 36.452a6 6 0 0 0 11.562 3.214l8.916-32.078a140.883 140.883 0 0 0 25.354 13.385l-29.284 92.369-24.071-5 7.97-28.675a6 6 0 1 0 -11.561-3.214l-20.606 74.134a6.014 6.014 0 0 0 2.257 6.476zm127.426-122.339a3.818 3.818 0 0 1 -3.81-3.723c1.086.026 2.171.054 3.26.054 1.457 0 2.911-.032 4.362-.077a3.819 3.819 0 0 1 -3.812 3.746zm118.907 112.971-22.536 4.932-8.81-27.785 23.562-4.889zm-11.033-39.323-23.959 4.971-29.669-93.567a138.17 138.17 0 0 0 19.12-10.04q2.935-1.851 5.757-3.836zm-40.34-143.776a98.723 98.723 0 0 1 -25.294 17.319l-15.616-49.252a61.938 61.938 0 0 0 25.861-21.718zm-67.534 10.3a15.829 15.829 0 0 0 -15.8 15.452 98.84 98.84 0 0 1 -13.076-2.984l16.179-51.023a60.954 60.954 0 0 0 27.942.139l15.835 49.939a99.13 99.13 0 0 1 -15.284 3.793 15.828 15.828 0 0 0 -15.796-15.317zm3.82 15.82v.737c-1.452.063-2.908.107-4.37.107q-1.638 0-3.27-.056v-.788a3.82 3.82 0 1 1 7.64 0zm-11.504-206.153a7.469 7.469 0 1 1 14.937 0v30.419c-1.872-.173-3.764-.273-5.68-.273a61.574 61.574 0 0 0 -9.257.7zm9.257 42.142a49.662 49.662 0 1 1 -49.514 49.662 49.644 49.644 0 0 1 49.514-49.658zm-51.8 82.85a61.948 61.948 0 0 0 26.19 22.852l-16.107 50.794a100.9 100.9 0 0 1 -25.971-16.496zm-58.873 48.255a7.74 7.74 0 0 1 6.6-11.743 7.864 7.864 0 0 1 6.7 3.8 112.205 112.205 0 0 0 95.25 53.689 110.947 110.947 0 0 0 93.115-50.282 7.821 7.821 0 0 1 10.028-2.8 7.6 7.6 0 0 1 3.976 4.878 7.816 7.816 0 0 1 -1.046 6.392 126.827 126.827 0 0 1 -214.627-3.935zm.4 162.118 23.646 4.909-8.81 27.786-22.551-4.932z"/></svg>