<svg width="650" height="360" viewBox="0 0 650 360" fill="none" xmlns="http://www.w3.org/2000/svg">
<path d="M9.23295 235V56.875H49.4318C60.0379 56.875 69.6023 59.6686 78.125 65.2557C85.4167 69.9905 90.625 77.3295 93.75 87.2727C95.4545 92.5758 96.3068 98.8731 96.3068 106.165C96.3068 118.097 93.1345 127.661 86.7898 134.858C84.1383 137.888 81.0133 140.208 77.4148 141.818C83.3807 144.091 88.447 148.589 92.6136 155.312C95.3598 159.858 97.3958 165.729 98.7216 172.926C99.3845 176.619 99.7159 180.739 99.7159 185.284C99.7159 196.553 97.5852 206.117 93.3239 213.977C90.0095 220.133 85.322 225.057 79.2614 228.75C72.4432 232.917 65.6723 235 58.9489 235H9.23295ZM38.2102 208.438H49.4318C58.5227 208.438 64.8201 203.75 68.3239 194.375C69.5549 191.155 70.1705 187.462 70.1705 183.295C70.1705 173.352 68.2765 166.108 64.4886 161.562C61.0795 157.396 56.0606 155.312 49.4318 155.312H38.2102V208.438ZM38.2102 129.602H49.4318C57.7652 129.602 63.3523 125.53 66.1932 117.386C67.2348 114.356 67.7557 110.616 67.7557 106.165C67.7557 98.7784 65.9564 93.1913 62.358 89.4034C59.0436 85.8996 54.7348 84.1477 49.4318 84.1477H38.2102V129.602ZM165.43 57.017C180.392 57.017 191.377 61.1364 198.384 69.375C204.54 76.572 207.617 86.6098 207.617 99.4886V125.341C207.617 137.936 202.835 148.589 193.271 157.301L213.157 235H184.18L167.844 167.812C167.087 167.907 166.282 167.955 165.43 167.955H149.947V235H123.1V57.017H165.43ZM181.481 99.9148C181.481 89.5928 176.367 84.4318 166.14 84.4318H149.947V141.392H166.14C170.401 141.392 174 139.877 176.935 136.847C179.966 133.816 181.481 130.17 181.481 125.909V99.9148ZM274.165 54.7443C286.003 54.7443 296.04 58.911 304.279 67.2443C312.612 75.5776 316.779 85.6155 316.779 97.358V194.517C316.779 206.354 312.612 216.439 304.279 224.773C295.946 233.011 285.908 237.131 274.165 237.131C262.328 237.131 252.29 232.964 244.052 224.631C235.813 216.297 231.694 206.259 231.694 194.517V97.358C231.694 85.5208 235.861 75.4829 244.194 67.2443C252.527 58.911 262.518 54.7443 274.165 54.7443ZM288.796 96.7898C288.796 92.5284 287.281 88.9299 284.251 85.9943C281.315 82.964 277.717 81.4489 273.455 81.4489C269.194 81.4489 265.548 82.964 262.518 85.9943C259.487 88.9299 257.972 92.5284 257.972 96.7898V194.233C257.972 198.494 259.487 202.14 262.518 205.17C265.548 208.106 269.194 209.574 273.455 209.574C277.717 209.574 281.315 208.106 284.251 205.17C287.281 202.14 288.796 198.494 288.796 194.233V96.7898ZM382.369 54.7443C394.206 54.7443 404.244 58.911 412.482 67.2443C420.816 75.5776 424.982 85.6155 424.982 97.358V194.517C424.982 206.354 420.816 216.439 412.482 224.773C404.149 233.011 394.111 237.131 382.369 237.131C370.531 237.131 360.494 232.964 352.255 224.631C344.016 216.297 339.897 206.259 339.897 194.517V97.358C339.897 85.5208 344.064 75.4829 352.397 67.2443C360.73 58.911 370.721 54.7443 382.369 54.7443ZM396.999 96.7898C396.999 92.5284 395.484 88.9299 392.454 85.9943C389.518 82.964 385.92 81.4489 381.658 81.4489C377.397 81.4489 373.751 82.964 370.721 85.9943C367.691 88.9299 366.175 92.5284 366.175 96.7898V194.233C366.175 198.494 367.691 202.14 370.721 205.17C373.751 208.106 377.397 209.574 381.658 209.574C385.92 209.574 389.518 208.106 392.454 205.17C395.484 202.14 396.999 198.494 396.999 194.233V96.7898ZM475.479 178.75V235H448.491V56.875H475.479V120.369L508.15 56.875H536.843L500.053 129.744L543.093 235H511.559L483.434 162.841L475.479 178.75ZM639.418 190.682C639.607 203.087 636.387 213.693 629.759 222.5C625.402 228.466 619.247 232.68 611.293 235.142C607.031 236.468 602.06 237.131 596.378 237.131C585.866 237.131 577.154 234.527 570.241 229.318C564.465 225.057 559.872 219.28 556.463 211.989C553.149 204.602 551.207 196.174 550.639 186.705L576.207 184.858C577.344 195.18 580.09 202.661 584.446 207.301C587.666 210.805 591.359 212.462 595.526 212.273C601.397 212.083 606.084 209.195 609.588 203.608C611.387 200.862 612.287 196.932 612.287 191.818C612.287 184.432 608.925 177.093 602.202 169.801C596.899 164.782 588.944 157.254 578.338 147.216C569.437 138.598 563.139 130.881 559.446 124.062C555.469 116.392 553.48 108.059 553.48 99.0625C553.48 82.8693 558.925 70.6061 569.815 62.2727C576.539 57.2538 584.872 54.7443 594.815 54.7443C604.38 54.7443 612.571 56.875 619.389 61.1364C624.692 64.4508 628.954 69.0909 632.173 75.0568C635.488 81.0227 637.476 87.8883 638.139 95.6534L612.429 100.341C611.671 93.0492 609.588 87.3674 606.179 83.2955C603.717 80.3598 600.166 78.892 595.526 78.892C590.601 78.892 586.861 81.0701 584.304 85.4261C582.221 88.9299 581.179 93.286 581.179 98.4943C581.179 106.638 584.683 114.924 591.69 123.352C594.342 126.572 598.319 130.36 603.622 134.716C609.872 139.924 613.991 143.57 615.98 145.653C622.609 152.282 627.723 158.816 631.321 165.256C633.026 168.286 634.399 171.08 635.44 173.636C637.997 179.981 639.323 185.663 639.418 190.682Z" fill="white"/>
<path d="M22.9537 345.781L26.0474 334.531L42.1724 281.75H44.9849L61.0162 334.531L64.063 345.781L67.2505 334.531L81.313 281.75H84.0787L65.7037 350H62.8443L45.9224 293.094L43.5318 285.875L41.2349 293.094L24.1724 350H21.313L2.89117 281.75H5.70367L19.8599 334.531L22.9537 345.781ZM136.517 316.156H102.298V347.469H141.298V350H99.7668V281.75H141.298V284.281H102.298V313.625H136.517V316.156ZM157.783 350V281.75H175.736C183.08 281.75 188.627 283.25 192.377 286.25C196.158 289.219 198.049 293.547 198.049 299.234C198.049 303.359 197.002 306.781 194.908 309.5C192.814 312.219 189.861 313.953 186.049 314.703C190.361 315.266 193.955 317.141 196.83 320.328C199.705 323.484 201.142 327.109 201.142 331.203C201.142 337.016 199.252 341.609 195.471 344.984C191.721 348.328 186.486 350 179.767 350H157.783ZM160.314 316.297V347.469H180.049C185.83 347.469 190.361 346.047 193.642 343.203C196.955 340.328 198.611 336.359 198.611 331.297C198.611 326.984 197.017 323.438 193.83 320.656C190.642 317.844 186.377 316.391 181.033 316.297H160.314ZM160.314 313.766H176.674C182.892 313.766 187.58 312.578 190.736 310.203C193.892 307.797 195.471 304.078 195.471 299.047C195.471 289.359 189.08 284.438 176.299 284.281H160.314V313.766ZM245.409 350V281.75H264.3C269.581 281.75 274.362 283 278.644 285.5C282.925 288 286.284 291.516 288.722 296.047C291.159 300.547 292.409 305.594 292.472 311.188V320.047C292.472 325.734 291.269 330.859 288.862 335.422C286.487 339.984 283.159 343.547 278.878 346.109C274.597 348.672 269.816 349.969 264.534 350H245.409ZM247.941 284.281V347.469H264.3C269.081 347.469 273.425 346.312 277.331 344C281.269 341.656 284.347 338.406 286.566 334.25C288.784 330.062 289.909 325.422 289.941 320.328V311.562C289.941 306.469 288.847 301.844 286.659 297.688C284.503 293.531 281.472 290.281 277.566 287.938C273.691 285.562 269.394 284.344 264.675 284.281H247.941ZM348.332 316.156H314.113V347.469H353.113V350H311.582V281.75H353.113V284.281H314.113V313.625H348.332V316.156ZM410.473 333.641C410.473 330.734 409.786 328.281 408.411 326.281C407.067 324.25 404.926 322.469 401.989 320.938C399.082 319.375 394.676 317.781 388.77 316.156C382.864 314.531 378.426 312.891 375.457 311.234C372.52 309.578 370.364 307.656 368.989 305.469C367.614 303.281 366.926 300.625 366.926 297.5C366.926 292.531 369.02 288.516 373.207 285.453C377.395 282.359 382.848 280.812 389.567 280.812C393.942 280.812 397.864 281.672 401.332 283.391C404.832 285.078 407.536 287.469 409.442 290.562C411.348 293.625 412.301 297.094 412.301 300.969H409.77C409.77 295.875 407.895 291.672 404.145 288.359C400.395 285.016 395.536 283.344 389.567 283.344C383.567 283.344 378.707 284.688 374.989 287.375C371.301 290.031 369.457 293.375 369.457 297.406C369.457 301.5 371.067 304.797 374.286 307.297C377.504 309.797 382.817 312.016 390.223 313.953C397.629 315.859 403.051 318.078 406.489 320.609C410.864 323.828 413.051 328.141 413.051 333.547C413.051 336.984 412.082 340.031 410.145 342.688C408.207 345.312 405.457 347.344 401.895 348.781C398.332 350.219 394.332 350.938 389.895 350.938C384.957 350.938 380.52 350.125 376.582 348.5C372.645 346.844 369.676 344.5 367.676 341.469C365.707 338.438 364.723 334.859 364.723 330.734H367.254C367.254 336.328 369.348 340.672 373.536 343.766C377.723 346.859 383.176 348.406 389.895 348.406C395.864 348.406 400.786 347.047 404.661 344.328C408.536 341.578 410.473 338.016 410.473 333.641ZM434.177 350H431.646V281.75H434.177V350ZM506.256 342.688C504.537 345.062 501.521 347.031 497.209 348.594C492.896 350.156 488.146 350.938 482.959 350.938C477.896 350.938 473.381 349.703 469.412 347.234C465.443 344.766 462.334 341.281 460.084 336.781C457.865 332.281 456.724 327.188 456.662 321.5V309.781C456.662 304.188 457.74 299.172 459.896 294.734C462.052 290.297 465.084 286.875 468.99 284.469C472.896 282.031 477.287 280.812 482.162 280.812C488.943 280.812 494.459 282.547 498.709 286.016C502.99 289.484 505.474 294.219 506.162 300.219H503.631C502.787 294.781 500.521 290.609 496.834 287.703C493.146 284.797 488.256 283.344 482.162 283.344C475.287 283.344 469.74 285.797 465.521 290.703C461.302 295.609 459.193 302.062 459.193 310.062V320.938C459.193 326.281 460.177 331.047 462.146 335.234C464.146 339.422 466.943 342.672 470.537 344.984C474.162 347.266 478.302 348.406 482.959 348.406C487.521 348.406 491.756 347.734 495.662 346.391C499.568 345.047 502.256 343.422 503.724 341.516V321.641H482.865V319.062H506.256V342.688ZM576.6 350H574.069L530.006 286.062V350H527.428V281.75H530.006L574.069 345.547V281.75H576.6V350ZM639.632 333.641C639.632 330.734 638.944 328.281 637.569 326.281C636.226 324.25 634.085 322.469 631.147 320.938C628.241 319.375 623.835 317.781 617.929 316.156C612.022 314.531 607.585 312.891 604.616 311.234C601.679 309.578 599.522 307.656 598.147 305.469C596.772 303.281 596.085 300.625 596.085 297.5C596.085 292.531 598.179 288.516 602.366 285.453C606.554 282.359 612.007 280.812 618.726 280.812C623.101 280.812 627.022 281.672 630.491 283.391C633.991 285.078 636.694 287.469 638.601 290.562C640.507 293.625 641.46 297.094 641.46 300.969H638.929C638.929 295.875 637.054 291.672 633.304 288.359C629.554 285.016 624.694 283.344 618.726 283.344C612.726 283.344 607.866 284.688 604.147 287.375C600.46 290.031 598.616 293.375 598.616 297.406C598.616 301.5 600.226 304.797 603.444 307.297C606.663 309.797 611.976 312.016 619.382 313.953C626.788 315.859 632.21 318.078 635.647 320.609C640.022 323.828 642.21 328.141 642.21 333.547C642.21 336.984 641.241 340.031 639.304 342.688C637.366 345.312 634.616 347.344 631.054 348.781C627.491 350.219 623.491 350.938 619.054 350.938C614.116 350.938 609.679 350.125 605.741 348.5C601.804 346.844 598.835 344.5 596.835 341.469C594.866 338.438 593.882 334.859 593.882 330.734H596.413C596.413 336.328 598.507 340.672 602.694 343.766C606.882 346.859 612.335 348.406 619.054 348.406C625.022 348.406 629.944 347.047 633.819 344.328C637.694 341.578 639.632 338.016 639.632 333.641Z" fill="white"/>
</svg>
