<svg width="657" height="285" viewBox="0 0 657 285" fill="none" xmlns="http://www.w3.org/2000/svg">
<path d="M56.145 142.84C45.2443 142.84 34.672 141.395 24.428 138.506C14.3153 135.485 6.1727 131.611 0 126.883L10.835 102.849C16.745 107.183 23.7713 110.663 31.914 113.29C40.0567 115.917 48.1993 117.23 56.342 117.23C65.404 117.23 72.102 115.917 76.436 113.29C80.77 110.532 82.937 106.92 82.937 102.455C82.937 99.172 81.6237 96.479 78.997 94.378C76.5017 92.145 73.2183 90.372 69.147 89.059C65.207 87.746 59.8223 86.301 52.993 84.725C42.4863 82.23 33.884 79.734 27.186 77.239C20.488 74.744 14.7093 70.738 9.85 65.222C5.122 59.706 2.758 52.351 2.758 43.158C2.758 35.1467 4.925 27.9233 9.259 21.488C13.593 14.9213 20.094 9.73374 28.762 5.92504C37.5613 2.11634 48.265 0.212036 60.873 0.212036C69.6723 0.212036 78.2747 1.26274 86.68 3.36404C95.085 5.46534 102.44 8.48604 108.744 12.426L98.894 36.657C86.1547 29.4337 73.4153 25.822 60.676 25.822C51.7453 25.822 45.113 27.2667 40.779 30.156C36.5763 33.0453 34.475 36.854 34.475 41.582C34.475 46.31 36.9047 49.856 41.764 52.22C46.7547 54.453 54.3063 56.685 64.419 58.918C74.9257 61.413 83.528 63.909 90.226 66.404C96.924 68.899 102.637 72.839 107.365 78.224C112.224 83.609 114.654 90.898 114.654 100.091C114.654 107.971 112.421 115.194 107.956 121.761C103.622 128.196 97.055 133.318 88.256 137.127C79.4567 140.936 68.753 142.84 56.145 142.84ZM196.743 135.354C193.722 137.587 189.979 139.294 185.514 140.476C181.18 141.527 176.583 142.052 171.724 142.052C159.116 142.052 149.332 138.834 142.371 132.399C135.542 125.964 132.127 116.508 132.127 104.031V60.494H115.776V36.854H132.127V11.047H162.859V36.854H189.257V60.494H162.859V103.637C162.859 108.102 163.975 111.583 166.208 114.078C168.572 116.442 171.855 117.624 176.058 117.624C180.917 117.624 185.054 116.311 188.469 113.684L196.743 135.354ZM308.633 87.877C308.633 88.271 308.436 91.029 308.042 96.151H227.863C229.307 102.718 232.722 107.905 238.107 111.714C243.491 115.523 250.189 117.427 258.201 117.427C263.717 117.427 268.576 116.639 272.779 115.063C277.113 113.356 281.118 110.729 284.796 107.183L301.147 124.913C291.165 136.339 276.587 142.052 257.413 142.052C245.461 142.052 234.889 139.754 225.696 135.157C216.502 130.429 209.41 123.928 204.42 115.654C199.429 107.38 196.934 97.99 196.934 87.483C196.934 77.108 199.363 67.783 204.223 59.509C209.213 51.104 215.977 44.6027 224.514 40.006C233.182 35.278 242.835 32.914 253.473 32.914C263.848 32.914 273.238 35.1467 281.644 39.612C290.049 44.0773 296.616 50.513 301.344 58.918C306.203 67.192 308.633 76.845 308.633 87.877ZM253.67 56.16C246.709 56.16 240.865 58.13 236.137 62.07C231.409 66.01 228.519 71.395 227.469 78.224H279.674C278.623 71.526 275.734 66.207 271.006 62.267C266.278 58.196 260.499 56.16 253.67 56.16ZM427.002 87.877C427.002 88.271 426.805 91.029 426.411 96.151H346.232C347.677 102.718 351.091 107.905 356.476 111.714C361.861 115.523 368.559 117.427 376.57 117.427C382.086 117.427 386.945 116.639 391.148 115.063C395.482 113.356 399.488 110.729 403.165 107.183L419.516 124.913C409.535 136.339 394.957 142.052 375.782 142.052C363.831 142.052 353.258 139.754 344.065 135.157C334.872 130.429 327.78 123.928 322.789 115.654C317.798 107.38 315.303 97.99 315.303 87.483C315.303 77.108 317.733 67.783 322.592 59.509C327.583 51.104 334.346 44.6027 342.883 40.006C351.551 35.278 361.204 32.914 371.842 32.914C382.217 32.914 391.608 35.1467 400.013 39.612C408.418 44.0773 414.985 50.513 419.713 58.918C424.572 67.192 427.002 76.845 427.002 87.877ZM372.039 56.16C365.078 56.16 359.234 58.13 354.506 62.07C349.778 66.01 346.889 71.395 345.838 78.224H398.043C396.992 71.526 394.103 66.207 389.375 62.267C384.647 58.196 378.868 56.16 372.039 56.16Z" fill="black"/>
<path d="M526.758 118.412V142.052H432.198V123.534L486.176 59.706H433.577V36.066L526.897 36.0661V55.052L471.007 118.412H526.758Z" fill="black"/>
<path d="M656.42 36.066L608.549 148.553C603.689 160.767 597.648 169.369 590.425 174.36C583.333 179.351 574.096 182.052 563.984 182.052H3.8147e-06V157.052H563.984C568.186 157.052 571.25 155.973 573.877 153.872C576.503 151.902 578.867 148.553 580.969 143.825L581.363 142.84L533.882 36.066H567.179L596.926 107.971L626.87 36.066H656.42Z" fill="black"/>
<path d="M24.2727 279.781L27.3664 268.531L43.4914 215.75H46.3039L62.3352 268.531L65.382 279.781L68.5695 268.531L82.632 215.75H85.3977L67.0227 284H64.1633L47.2414 227.094L44.8508 219.875L42.5539 227.094L25.4914 284H22.632L4.21017 215.75H7.02267L21.1789 268.531L24.2727 279.781ZM137.836 250.156H103.617V281.469H142.617V284H101.086V215.75H142.617V218.281H103.617V247.625H137.836V250.156ZM159.102 284V215.75H177.055C184.399 215.75 189.946 217.25 193.696 220.25C197.477 223.219 199.368 227.547 199.368 233.234C199.368 237.359 198.321 240.781 196.227 243.5C194.133 246.219 191.18 247.953 187.368 248.703C191.68 249.266 195.274 251.141 198.149 254.328C201.024 257.484 202.461 261.109 202.461 265.203C202.461 271.016 200.571 275.609 196.79 278.984C193.04 282.328 187.805 284 181.086 284H159.102ZM161.633 250.297V281.469H181.368C187.149 281.469 191.68 280.047 194.961 277.203C198.274 274.328 199.93 270.359 199.93 265.297C199.93 260.984 198.336 257.438 195.149 254.656C191.961 251.844 187.696 250.391 182.352 250.297H161.633ZM161.633 247.766H177.993C184.211 247.766 188.899 246.578 192.055 244.203C195.211 241.797 196.79 238.078 196.79 233.047C196.79 223.359 190.399 218.438 177.618 218.281H161.633V247.766ZM246.728 284V215.75H265.619C270.9 215.75 275.681 217 279.963 219.5C284.244 222 287.603 225.516 290.041 230.047C292.478 234.547 293.728 239.594 293.791 245.188V254.047C293.791 259.734 292.588 264.859 290.181 269.422C287.806 273.984 284.478 277.547 280.197 280.109C275.916 282.672 271.135 283.969 265.853 284H246.728ZM249.26 218.281V281.469H265.619C270.4 281.469 274.744 280.312 278.65 278C282.588 275.656 285.666 272.406 287.885 268.25C290.103 264.062 291.228 259.422 291.26 254.328V245.562C291.26 240.469 290.166 235.844 287.978 231.688C285.822 227.531 282.791 224.281 278.885 221.938C275.01 219.562 270.713 218.344 265.994 218.281H249.26ZM349.651 250.156H315.432V281.469H354.432V284H312.901V215.75H354.432V218.281H315.432V247.625H349.651V250.156ZM411.792 267.641C411.792 264.734 411.105 262.281 409.73 260.281C408.386 258.25 406.245 256.469 403.308 254.938C400.401 253.375 395.995 251.781 390.089 250.156C384.183 248.531 379.745 246.891 376.776 245.234C373.839 243.578 371.683 241.656 370.308 239.469C368.933 237.281 368.245 234.625 368.245 231.5C368.245 226.531 370.339 222.516 374.526 219.453C378.714 216.359 384.167 214.812 390.886 214.812C395.261 214.812 399.183 215.672 402.651 217.391C406.151 219.078 408.855 221.469 410.761 224.562C412.667 227.625 413.62 231.094 413.62 234.969H411.089C411.089 229.875 409.214 225.672 405.464 222.359C401.714 219.016 396.855 217.344 390.886 217.344C384.886 217.344 380.026 218.688 376.308 221.375C372.62 224.031 370.776 227.375 370.776 231.406C370.776 235.5 372.386 238.797 375.605 241.297C378.823 243.797 384.136 246.016 391.542 247.953C398.948 249.859 404.37 252.078 407.808 254.609C412.183 257.828 414.37 262.141 414.37 267.547C414.37 270.984 413.401 274.031 411.464 276.688C409.526 279.312 406.776 281.344 403.214 282.781C399.651 284.219 395.651 284.938 391.214 284.938C386.276 284.938 381.839 284.125 377.901 282.5C373.964 280.844 370.995 278.5 368.995 275.469C367.026 272.438 366.042 268.859 366.042 264.734H368.573C368.573 270.328 370.667 274.672 374.855 277.766C379.042 280.859 384.495 282.406 391.214 282.406C397.183 282.406 402.105 281.047 405.98 278.328C409.855 275.578 411.792 272.016 411.792 267.641ZM435.496 284H432.965V215.75H435.496V284ZM507.575 276.688C505.856 279.062 502.84 281.031 498.528 282.594C494.215 284.156 489.465 284.938 484.278 284.938C479.215 284.938 474.7 283.703 470.731 281.234C466.762 278.766 463.653 275.281 461.403 270.781C459.184 266.281 458.043 261.188 457.981 255.5V243.781C457.981 238.188 459.059 233.172 461.215 228.734C463.371 224.297 466.403 220.875 470.309 218.469C474.215 216.031 478.606 214.812 483.481 214.812C490.262 214.812 495.778 216.547 500.028 220.016C504.309 223.484 506.793 228.219 507.481 234.219H504.95C504.106 228.781 501.84 224.609 498.153 221.703C494.465 218.797 489.575 217.344 483.481 217.344C476.606 217.344 471.059 219.797 466.84 224.703C462.621 229.609 460.512 236.062 460.512 244.062V254.938C460.512 260.281 461.496 265.047 463.465 269.234C465.465 273.422 468.262 276.672 471.856 278.984C475.481 281.266 479.621 282.406 484.278 282.406C488.84 282.406 493.075 281.734 496.981 280.391C500.887 279.047 503.575 277.422 505.043 275.516V255.641H484.184V253.062H507.575V276.688ZM577.919 284H575.388L531.325 220.062V284H528.747V215.75H531.325L575.388 279.547V215.75H577.919V284ZM640.951 267.641C640.951 264.734 640.263 262.281 638.888 260.281C637.545 258.25 635.404 256.469 632.466 254.938C629.56 253.375 625.154 251.781 619.248 250.156C613.341 248.531 608.904 246.891 605.935 245.234C602.998 243.578 600.841 241.656 599.466 239.469C598.091 237.281 597.404 234.625 597.404 231.5C597.404 226.531 599.498 222.516 603.685 219.453C607.873 216.359 613.326 214.812 620.045 214.812C624.42 214.812 628.341 215.672 631.81 217.391C635.31 219.078 638.013 221.469 639.92 224.562C641.826 227.625 642.779 231.094 642.779 234.969H640.248C640.248 229.875 638.373 225.672 634.623 222.359C630.873 219.016 626.013 217.344 620.045 217.344C614.045 217.344 609.185 218.688 605.466 221.375C601.779 224.031 599.935 227.375 599.935 231.406C599.935 235.5 601.545 238.797 604.763 241.297C607.982 243.797 613.295 246.016 620.701 247.953C628.107 249.859 633.529 252.078 636.966 254.609C641.341 257.828 643.529 262.141 643.529 267.547C643.529 270.984 642.56 274.031 640.623 276.688C638.685 279.312 635.935 281.344 632.373 282.781C628.81 284.219 624.81 284.938 620.373 284.938C615.435 284.938 610.998 284.125 607.06 282.5C603.123 280.844 600.154 278.5 598.154 275.469C596.185 272.438 595.201 268.859 595.201 264.734H597.732C597.732 270.328 599.826 274.672 604.013 277.766C608.201 280.859 613.654 282.406 620.373 282.406C626.341 282.406 631.263 281.047 635.138 278.328C639.013 275.578 640.951 272.016 640.951 267.641Z" fill="black"/>
</svg>
