<svg width="653" height="321" viewBox="0 0 653 321" fill="none" xmlns="http://www.w3.org/2000/svg">
<g clip-path="url(#clip0)">
<path d="M54.826 189.84C43.9253 189.84 33.353 188.395 23.109 185.506C12.9963 182.485 4.8537 178.611 -1.319 173.883L9.516 149.849C15.426 154.183 22.4523 157.663 30.595 160.29C38.7377 162.917 46.8803 164.23 55.023 164.23C64.085 164.23 70.783 162.917 75.117 160.29C79.451 157.532 81.618 153.92 81.618 149.455C81.618 146.172 80.3047 143.479 77.678 141.378C75.1827 139.145 71.8993 137.372 67.828 136.059C63.888 134.746 58.5033 133.301 51.674 131.725C41.1673 129.23 32.565 126.734 25.867 124.239C19.169 121.744 13.3903 117.738 8.531 112.222C3.803 106.706 1.439 99.351 1.439 90.158C1.439 82.1467 3.606 74.9233 7.94 68.488C12.274 61.9213 18.775 56.7337 27.443 52.925C36.2423 49.1163 46.946 47.212 59.554 47.212C68.3533 47.212 76.9557 48.2627 85.361 50.364C93.766 52.4653 101.121 55.486 107.425 59.426L97.575 83.657C84.8357 76.4337 72.0963 72.822 59.357 72.822C50.4263 72.822 43.794 74.2667 39.46 77.156C35.2573 80.0453 33.156 83.854 33.156 88.582C33.156 93.31 35.5857 96.856 40.445 99.22C45.4357 101.453 52.9873 103.685 63.1 105.918C73.6067 108.413 82.209 110.909 88.907 113.404C95.605 115.899 101.318 119.839 106.046 125.224C110.905 130.609 113.335 137.898 113.335 147.091C113.335 154.971 111.102 162.194 106.637 168.761C102.303 175.196 95.736 180.318 86.937 184.127C78.1377 187.936 67.434 189.84 54.826 189.84ZM195.424 182.354C192.403 184.587 188.66 186.294 184.195 187.476C179.861 188.527 175.264 189.052 170.405 189.052C157.797 189.052 148.013 185.834 141.052 179.399C134.223 172.964 130.808 163.508 130.808 151.031V107.494H114.457V83.854H130.808V58.047H161.54V83.854H187.938V107.494H161.54V150.637C161.54 155.102 162.656 158.583 164.889 161.078C167.253 163.442 170.536 164.624 174.739 164.624C179.598 164.624 183.735 163.311 187.15 160.684L195.424 182.354ZM307.314 134.877C307.314 135.271 307.117 138.029 306.723 143.151H226.544C227.988 149.718 231.403 154.905 236.788 158.714C242.172 162.523 248.87 164.427 256.882 164.427C262.398 164.427 267.257 163.639 271.46 162.063C275.794 160.356 279.799 157.729 283.477 154.183L299.828 171.913C289.846 183.339 275.268 189.052 256.094 189.052C244.142 189.052 233.57 186.754 224.377 182.157C215.183 177.429 208.091 170.928 203.101 162.654C198.11 154.38 195.615 144.99 195.615 134.483C195.615 124.108 198.044 114.783 202.904 106.509C207.894 98.104 214.658 91.6027 223.195 87.006C231.863 82.278 241.516 79.914 252.154 79.914C262.529 79.914 271.919 82.1467 280.325 86.612C288.73 91.0773 295.297 97.513 300.025 105.918C304.884 114.192 307.314 123.845 307.314 134.877ZM252.351 103.16C245.39 103.16 239.546 105.13 234.818 109.07C230.09 113.01 227.2 118.395 226.15 125.224H278.355C277.304 118.526 274.415 113.207 269.687 109.267C264.959 105.196 259.18 103.16 252.351 103.16ZM425.683 134.877C425.683 135.271 425.486 138.029 425.092 143.151H344.913C346.358 149.718 349.772 154.905 355.157 158.714C360.542 162.523 367.24 164.427 375.251 164.427C380.767 164.427 385.626 163.639 389.829 162.063C394.163 160.356 398.169 157.729 401.846 154.183L418.197 171.913C408.216 183.339 393.638 189.052 374.463 189.052C362.512 189.052 351.939 186.754 342.746 182.157C333.553 177.429 326.461 170.928 321.47 162.654C316.479 154.38 313.984 144.99 313.984 134.483C313.984 124.108 316.414 114.783 321.273 106.509C326.264 98.104 333.027 91.6027 341.564 87.006C350.232 82.278 359.885 79.914 370.523 79.914C380.898 79.914 390.289 82.1467 398.694 86.612C407.099 91.0773 413.666 97.513 418.394 105.918C423.253 114.192 425.683 123.845 425.683 134.877ZM370.72 103.16C363.759 103.16 357.915 105.13 353.187 109.07C348.459 113.01 345.57 118.395 344.519 125.224H396.724C395.673 118.526 392.784 113.207 388.056 109.267C383.328 105.196 377.549 103.16 370.72 103.16Z" fill="black"/>
<path d="M525.439 165.412V189.052H430.879V170.534L484.857 106.706H432.258V83.066L525.578 83.0661V102.052L469.688 165.412H525.439Z" fill="black"/>
<path d="M655.101 83.066L607.23 195.553C602.37 207.767 596.329 216.369 589.106 221.36C582.014 226.351 572.777 229.052 562.665 229.052H-1.319V204.052H562.665C566.867 204.052 569.931 202.973 572.558 200.872C575.184 198.902 577.548 195.553 579.65 190.825L580.044 189.84L532.563 83.066H565.86L595.607 154.971L625.551 83.066H655.101Z" fill="black"/>
<path d="M22.9537 306.781L26.0474 295.531L42.1724 242.75H44.9849L61.0162 295.531L64.063 306.781L67.2505 295.531L81.313 242.75H84.0787L65.7037 311H62.8443L45.9224 254.094L43.5318 246.875L41.2349 254.094L24.1724 311H21.313L2.89117 242.75H5.70367L19.8599 295.531L22.9537 306.781ZM136.517 277.156H102.298V308.469H141.298V311H99.7668V242.75H141.298V245.281H102.298V274.625H136.517V277.156ZM157.783 311V242.75H175.736C183.08 242.75 188.627 244.25 192.377 247.25C196.158 250.219 198.049 254.547 198.049 260.234C198.049 264.359 197.002 267.781 194.908 270.5C192.814 273.219 189.861 274.953 186.049 275.703C190.361 276.266 193.955 278.141 196.83 281.328C199.705 284.484 201.142 288.109 201.142 292.203C201.142 298.016 199.252 302.609 195.471 305.984C191.721 309.328 186.486 311 179.767 311H157.783ZM160.314 277.297V308.469H180.049C185.83 308.469 190.361 307.047 193.642 304.203C196.955 301.328 198.611 297.359 198.611 292.297C198.611 287.984 197.017 284.438 193.83 281.656C190.642 278.844 186.377 277.391 181.033 277.297H160.314ZM160.314 274.766H176.674C182.892 274.766 187.58 273.578 190.736 271.203C193.892 268.797 195.471 265.078 195.471 260.047C195.471 250.359 189.08 245.438 176.299 245.281H160.314V274.766ZM245.409 311V242.75H264.3C269.581 242.75 274.362 244 278.644 246.5C282.925 249 286.284 252.516 288.722 257.047C291.159 261.547 292.409 266.594 292.472 272.188V281.047C292.472 286.734 291.269 291.859 288.862 296.422C286.487 300.984 283.159 304.547 278.878 307.109C274.597 309.672 269.816 310.969 264.534 311H245.409ZM247.941 245.281V308.469H264.3C269.081 308.469 273.425 307.312 277.331 305C281.269 302.656 284.347 299.406 286.566 295.25C288.784 291.062 289.909 286.422 289.941 281.328V272.562C289.941 267.469 288.847 262.844 286.659 258.688C284.503 254.531 281.472 251.281 277.566 248.938C273.691 246.562 269.394 245.344 264.675 245.281H247.941ZM348.332 277.156H314.113V308.469H353.113V311H311.582V242.75H353.113V245.281H314.113V274.625H348.332V277.156ZM410.473 294.641C410.473 291.734 409.786 289.281 408.411 287.281C407.067 285.25 404.926 283.469 401.989 281.938C399.082 280.375 394.676 278.781 388.77 277.156C382.864 275.531 378.426 273.891 375.457 272.234C372.52 270.578 370.364 268.656 368.989 266.469C367.614 264.281 366.926 261.625 366.926 258.5C366.926 253.531 369.02 249.516 373.207 246.453C377.395 243.359 382.848 241.812 389.567 241.812C393.942 241.812 397.864 242.672 401.332 244.391C404.832 246.078 407.536 248.469 409.442 251.562C411.348 254.625 412.301 258.094 412.301 261.969H409.77C409.77 256.875 407.895 252.672 404.145 249.359C400.395 246.016 395.536 244.344 389.567 244.344C383.567 244.344 378.707 245.688 374.989 248.375C371.301 251.031 369.457 254.375 369.457 258.406C369.457 262.5 371.067 265.797 374.286 268.297C377.504 270.797 382.817 273.016 390.223 274.953C397.629 276.859 403.051 279.078 406.489 281.609C410.864 284.828 413.051 289.141 413.051 294.547C413.051 297.984 412.082 301.031 410.145 303.688C408.207 306.312 405.457 308.344 401.895 309.781C398.332 311.219 394.332 311.938 389.895 311.938C384.957 311.938 380.52 311.125 376.582 309.5C372.645 307.844 369.676 305.5 367.676 302.469C365.707 299.438 364.723 295.859 364.723 291.734H367.254C367.254 297.328 369.348 301.672 373.536 304.766C377.723 307.859 383.176 309.406 389.895 309.406C395.864 309.406 400.786 308.047 404.661 305.328C408.536 302.578 410.473 299.016 410.473 294.641ZM434.177 311H431.646V242.75H434.177V311ZM506.256 303.688C504.537 306.062 501.521 308.031 497.209 309.594C492.896 311.156 488.146 311.938 482.959 311.938C477.896 311.938 473.381 310.703 469.412 308.234C465.443 305.766 462.334 302.281 460.084 297.781C457.865 293.281 456.724 288.188 456.662 282.5V270.781C456.662 265.188 457.74 260.172 459.896 255.734C462.052 251.297 465.084 247.875 468.99 245.469C472.896 243.031 477.287 241.812 482.162 241.812C488.943 241.812 494.459 243.547 498.709 247.016C502.99 250.484 505.474 255.219 506.162 261.219H503.631C502.787 255.781 500.521 251.609 496.834 248.703C493.146 245.797 488.256 244.344 482.162 244.344C475.287 244.344 469.74 246.797 465.521 251.703C461.302 256.609 459.193 263.062 459.193 271.062V281.938C459.193 287.281 460.177 292.047 462.146 296.234C464.146 300.422 466.943 303.672 470.537 305.984C474.162 308.266 478.302 309.406 482.959 309.406C487.521 309.406 491.756 308.734 495.662 307.391C499.568 306.047 502.256 304.422 503.724 302.516V282.641H482.865V280.062H506.256V303.688ZM576.6 311H574.069L530.006 247.062V311H527.428V242.75H530.006L574.069 306.547V242.75H576.6V311ZM639.632 294.641C639.632 291.734 638.944 289.281 637.569 287.281C636.226 285.25 634.085 283.469 631.147 281.938C628.241 280.375 623.835 278.781 617.929 277.156C612.022 275.531 607.585 273.891 604.616 272.234C601.679 270.578 599.522 268.656 598.147 266.469C596.772 264.281 596.085 261.625 596.085 258.5C596.085 253.531 598.179 249.516 602.366 246.453C606.554 243.359 612.007 241.812 618.726 241.812C623.101 241.812 627.022 242.672 630.491 244.391C633.991 246.078 636.694 248.469 638.601 251.562C640.507 254.625 641.46 258.094 641.46 261.969H638.929C638.929 256.875 637.054 252.672 633.304 249.359C629.554 246.016 624.694 244.344 618.726 244.344C612.726 244.344 607.866 245.688 604.147 248.375C600.46 251.031 598.616 254.375 598.616 258.406C598.616 262.5 600.226 265.797 603.444 268.297C606.663 270.797 611.976 273.016 619.382 274.953C626.788 276.859 632.21 279.078 635.647 281.609C640.022 284.828 642.21 289.141 642.21 294.547C642.21 297.984 641.241 301.031 639.304 303.688C637.366 306.312 634.616 308.344 631.054 309.781C627.491 311.219 623.491 311.938 619.054 311.938C614.116 311.938 609.679 311.125 605.741 309.5C601.804 307.844 598.835 305.5 596.835 302.469C594.866 299.438 593.882 295.859 593.882 291.734H596.413C596.413 297.328 598.507 301.672 602.694 304.766C606.882 307.859 612.335 309.406 619.054 309.406C625.022 309.406 629.944 308.047 633.819 305.328C637.694 302.578 639.632 299.016 639.632 294.641Z" fill="black"/>
</g>
<defs>
<clipPath id="clip0">
<rect width="653" height="321" fill="white"/>
</clipPath>
</defs>
</svg>
